<svg width="21" height="21" viewBox="0 0 21 21" fill="none" xmlns="http://www.w3.org/2000/svg">
    <path d="M5.13046 6.90253C5.13046 6.90253 4.63696 6.59336 4.29513 6.70099C3.95271 6.8057 3.70042 7.10261 3.36267 7.21753C3.02492 7.33303 2.65275 7.23328 2.65275 7.23328C2.65275 7.23328 2.98321 7.43132 3.13342 7.7542C3.28362 8.0762 3.19554 8.42765 3.3545 8.74703C3.51462 9.0664 4.16242 9.2312 4.16242 9.2312C4.16242 9.2312 3.58812 9.13436 3.31367 9.36449C3.03746 9.59228 2.91787 9.96328 2.64983 10.1987C2.38237 10.4346 2 10.4848 2 10.4848C2 10.4848 2.38121 10.5411 2.64371 10.782C2.90562 11.0223 2.95871 11.3802 3.22792 11.6147C3.498 11.8486 4.1595 11.7532 4.1595 11.7532C4.1595 11.7532 3.59192 11.8833 3.42596 12.2009C3.25796 12.5174 3.28917 12.9056 3.13167 13.2259C2.97504 13.5461 2.64108 13.7392 2.64108 13.7392C2.64108 13.7392 3.01471 13.6453 3.34954 13.7675C3.68379 13.8891 3.86958 14.1997 4.20762 14.3132C4.54654 14.4258 5.12142 14.0845 5.12142 14.0845C5.12142 14.0845 4.64687 14.422 4.61537 14.779C4.58125 15.1357 4.75887 15.4825 4.73583 15.8383C4.71367 16.1942 4.47887 16.5004 4.47887 16.5004C4.47887 16.5004 4.78833 16.2706 5.14417 16.2554C5.49942 16.2397 5.79021 16.4561 6.14604 16.4313C6.50217 16.4056 6.90292 15.8701 6.90292 15.8701C6.90292 15.8701 6.59346 16.3636 6.70108 16.7054C6.80579 17.0482 7.103 17.3004 7.21762 17.6379C7.33312 17.9751 7.23396 18.3478 7.23396 18.3478C7.23396 18.3478 7.43171 18.0171 7.75487 17.8672C8.07687 17.7167 8.42833 17.805 8.74742 17.6461C9.0665 17.4862 9.23187 16.8379 9.23187 16.8379C9.23187 16.8379 9.13504 17.4122 9.36487 17.6869C9.59296 17.9634 9.96396 18.0827 10.1987 18.3507C10.4347 18.6179 10.4855 19.0006 10.4855 19.0006C10.4855 19.0006 10.5412 18.6191 10.783 18.3569C11.0227 18.0947 11.3812 18.0419 11.6154 17.7727C11.849 17.5032 11.7539 16.8414 11.7539 16.8414C11.7539 16.8414 11.8843 17.4084 12.2016 17.5746C12.5184 17.7426 12.9069 17.7114 13.2265 17.8689C13.5468 18.0252 13.7399 18.3595 13.7399 18.3595C13.7399 18.3595 13.646 17.9859 13.7685 17.651C13.8898 17.3168 14.2007 17.131 14.3136 16.7927C14.4265 16.4546 14.0852 15.8792 14.0852 15.8792C14.0852 15.8792 14.423 16.3534 14.7797 16.3852C15.137 16.4193 15.4832 16.2417 15.8393 16.265C16.1948 16.2866 16.5014 16.5217 16.5014 16.5217C16.5014 16.5217 16.2712 16.2122 16.2564 15.8564C16.2403 15.5009 16.457 15.2104 16.4314 14.8545C16.4063 14.499 15.8711 14.0979 15.8711 14.0979C15.8711 14.0979 16.3646 14.4068 16.7058 14.2998C17.0494 14.1948 17.3011 13.8979 17.6389 13.7832C17.9755 13.6674 18.3488 13.7669 18.3488 13.7669C18.3488 13.7669 18.0177 13.5692 17.8681 13.246C17.717 12.924 17.806 12.5722 17.6465 12.2537C17.4869 11.9352 16.8388 11.7693 16.8388 11.7693C16.8388 11.7693 17.4134 11.8655 17.6873 11.6363C17.9647 11.4079 18.0837 11.0372 18.3514 10.8021C18.6186 10.5662 19.0015 10.5154 19.0015 10.5154C19.0015 10.5154 18.6197 10.4597 18.3578 10.2182C18.0953 9.97845 18.0428 9.6197 17.7733 9.38607C17.5038 9.15274 16.842 9.24753 16.842 9.24753C16.842 9.24753 17.4093 9.11657 17.5753 8.80011C17.7439 8.48278 17.7121 8.09486 17.8693 7.7749C18.0259 7.45436 18.3605 7.26128 18.3605 7.26128C18.3605 7.26128 17.9862 7.35578 17.6517 7.23299C17.3175 7.11195 17.1317 6.80074 16.7933 6.68786C16.4556 6.57557 15.8801 6.91653 15.8801 6.91653C15.8801 6.91653 16.3541 6.57849 16.3859 6.22265C16.42 5.86478 16.2424 5.51886 16.2651 5.16303C16.2873 4.8072 16.5227 4.50065 16.5227 4.50065C16.5227 4.50065 16.2129 4.73107 15.8568 4.74565C15.5018 4.7617 15.2107 4.54528 14.8552 4.57036C14.5002 4.59603 14.0989 5.13124 14.0989 5.13124C14.0989 5.13124 14.4075 4.63774 14.3007 4.29649C14.1955 3.9529 13.8985 3.7012 13.7836 3.36374C13.6681 3.02657 13.7676 2.65324 13.7676 2.65324C13.7676 2.65324 13.5698 2.98457 13.2464 3.13449C12.9244 3.28499 12.5729 3.19632 12.2541 3.35557C11.9362 3.51511 11.77 4.1629 11.77 4.1629C11.77 4.1629 11.8668 3.5892 11.6367 3.31415C11.4089 3.03824 11.0379 2.91865 10.8028 2.65061C10.5665 2.38286 10.5164 2.00049 10.5164 2.00049C10.5164 2.00049 10.4601 2.3817 10.2192 2.6442C9.97913 2.90611 9.62067 2.9592 9.38675 3.2287C9.15254 3.49878 9.24792 4.15999 9.24792 4.15999C9.24792 4.15999 9.11783 3.5927 8.79992 3.42674C8.48375 3.25903 8.09554 3.29053 7.77529 3.13274C7.45475 2.97553 7.26196 2.64186 7.26196 2.64186C7.26196 2.64186 7.35558 3.01549 7.23367 3.35032C7.11204 3.68428 6.80142 3.87036 6.68796 4.2087C6.57508 4.5479 6.91662 5.1222 6.91662 5.1222C6.91662 5.1222 6.57917 4.64795 6.22187 4.61615C5.86546 4.58203 5.51896 4.75965 5.16283 4.73661C4.80671 4.71415 4.50075 4.47965 4.50075 4.47965C4.50075 4.47965 4.73029 4.78911 4.74575 5.14495C4.76121 5.5002 4.54508 5.79099 4.56987 6.14711C4.59496 6.50236 5.13046 6.90253 5.13046 6.90253Z" fill="url(#paint0_radial_102_1281)" stroke="#212120" stroke-width="0.291667" stroke-miterlimit="10"/>
    <path d="M10.4999 16.8472C14.0055 16.8472 16.8474 14.0053 16.8474 10.4996C16.8474 6.99399 14.0055 4.1521 10.4999 4.1521C6.99424 4.1521 4.15234 6.99399 4.15234 10.4996C4.15234 14.0053 6.99424 16.8472 10.4999 16.8472Z" fill="url(#paint1_radial_102_1281)" stroke="#212120" stroke-width="0.291667" stroke-miterlimit="10"/>
    <path d="M10.4653 16.8963L4.94434 7.33252L15.9874 7.3331L10.4653 16.8963Z" fill="url(#paint2_radial_102_1281)" stroke="#212120" stroke-width="0.291667" stroke-miterlimit="10" stroke-linejoin="bevel"/>
    <path d="M10.5001 13.4833C12.1478 13.4833 13.4835 12.1475 13.4835 10.4998C13.4835 8.8521 12.1478 7.51636 10.5001 7.51636C8.85234 7.51636 7.5166 8.8521 7.5166 10.4998C7.5166 12.1475 8.85234 13.4833 10.5001 13.4833Z" fill="url(#paint3_radial_102_1281)" stroke="#212120" stroke-width="0.291667" stroke-miterlimit="10"/>
    <defs>
        <radialGradient id="paint0_radial_102_1281" cx="0" cy="0" r="1" gradientUnits="userSpaceOnUse" gradientTransform="translate(10.5005 10.4998) scale(7.49591 7.54069)">
            <stop stop-color="white" stop-opacity="0"/>
            <stop offset="0.0853" stop-color="#F2F9FE" stop-opacity="0.0853"/>
            <stop offset="0.2313" stop-color="#D3E9FA" stop-opacity="0.2313"/>
            <stop offset="0.4204" stop-color="#A9D4F4" stop-opacity="0.4204"/>
            <stop offset="0.6452" stop-color="#77BEED" stop-opacity="0.6452"/>
            <stop offset="0.8974" stop-color="#31A9E5" stop-opacity="0.8974"/>
            <stop offset="1" stop-color="#00A2E3"/>
        </radialGradient>
        <radialGradient id="paint1_radial_102_1281" cx="0" cy="0" r="1" gradientUnits="userSpaceOnUse" gradientTransform="translate(10.5 10.4999) scale(6.34751)">
            <stop stop-color="white" stop-opacity="0"/>
            <stop offset="0.0852" stop-color="#F4FAFE" stop-opacity="0.0852"/>
            <stop offset="0.22" stop-color="#DAEDFB" stop-opacity="0.22"/>
            <stop offset="0.3875" stop-color="#B5DAF6" stop-opacity="0.3875"/>
            <stop offset="0.5812" stop-color="#89C6EF" stop-opacity="0.5812"/>
            <stop offset="0.7939" stop-color="#55B2E8" stop-opacity="0.7939"/>
            <stop offset="1" stop-color="#00A2E3"/>
        </radialGradient>
        <radialGradient id="paint2_radial_102_1281" cx="0" cy="0" r="1" gradientUnits="userSpaceOnUse" gradientTransform="translate(10.5295 10.5064) scale(5.16486)">
            <stop stop-color="white" stop-opacity="0"/>
            <stop offset="1" stop-color="#00A2E3"/>
        </radialGradient>
        <radialGradient id="paint3_radial_102_1281" cx="0" cy="0" r="1" gradientUnits="userSpaceOnUse" gradientTransform="translate(10.5002 10.5001) scale(2.9834)">
            <stop stop-color="white" stop-opacity="0"/>
            <stop offset="0.0852" stop-color="#F4FAFE" stop-opacity="0.0852"/>
            <stop offset="0.22" stop-color="#DAEDFB" stop-opacity="0.22"/>
            <stop offset="0.3875" stop-color="#B5DAF6" stop-opacity="0.3875"/>
            <stop offset="0.5812" stop-color="#89C6EF" stop-opacity="0.5812"/>
            <stop offset="0.7939" stop-color="#55B2E8" stop-opacity="0.7939"/>
            <stop offset="1" stop-color="#00A2E3"/>
        </radialGradient>
    </defs>
</svg>
