<svg width="19" height="19" viewBox="0 0 19 19" fill="none" xmlns="http://www.w3.org/2000/svg">
    <path d="M14.8964 10.522C14.8964 10.522 15.5879 10.2854 15.8562 9.96779C16.1246 9.65163 16.2549 9.28821 16.5137 8.96504C16.7706 8.64304 17.1276 8.4205 17.1276 8.4205C17.1276 8.4205 16.7204 8.32367 16.3804 8.08829C16.0409 7.85467 15.8813 7.54084 15.5345 7.31654C15.1869 7.09109 14.3498 7.09604 14.3498 7.09604L14.3527 7.09313C14.3527 7.09313 14.773 6.4955 14.8033 6.08075C14.8339 5.66717 14.7257 5.29646 14.7462 4.88346C14.7642 4.47163 14.9223 4.08196 14.9223 4.08196C14.9223 4.08196 14.5361 4.24267 14.1226 4.25229C13.7104 4.26309 13.3972 4.10238 12.9842 4.12513C12.5706 4.14671 11.8963 4.64284 11.8963 4.64284L11.8974 4.63934C11.8974 4.63934 11.8861 3.90842 11.6667 3.55521C11.4486 3.202 11.1432 2.96604 10.9166 2.62042C10.6894 2.27567 10.5879 1.86792 10.5879 1.86792C10.5879 1.86792 10.3703 2.22521 10.0416 2.47634C9.71403 2.72688 9.36665 2.78113 9.04523 3.04188C8.72323 3.30321 8.46948 4.10092 8.46948 4.10092L8.46803 4.09684C8.46803 4.09684 8.02994 3.51292 7.64436 3.35629C7.26053 3.19909 6.87523 3.18654 6.48848 3.04071C6.10057 2.89546 5.78003 2.62421 5.78003 2.62421C5.78003 2.62421 5.81328 3.04129 5.69457 3.43709C5.57761 3.83346 5.32882 4.08138 5.22207 4.48125C5.11503 4.88229 5.37869 5.6765 5.37869 5.6765L5.3749 5.67417C5.3749 5.67417 4.67723 5.45892 4.27328 5.55954C3.87019 5.65754 3.55111 5.87396 3.1524 5.98334C2.7534 6.09388 2.33486 6.06238 2.33486 6.06238C2.33486 6.06238 2.60698 6.38029 2.74348 6.77054C2.88173 7.15963 2.82632 7.50642 2.97478 7.89346C3.12382 8.28021 3.80398 8.76788 3.80398 8.76788L3.7999 8.76846C3.7999 8.76846 3.10894 9.00442 2.8409 9.32321C2.57257 9.63879 2.4419 10.0025 2.18319 10.3248C1.92536 10.6488 1.56836 10.8699 1.56836 10.8699C1.56836 10.8699 1.97523 10.9668 2.31532 11.2027C2.65598 11.4363 2.81494 11.7496 3.16203 11.975C3.50998 12.2002 4.34678 12.195 4.34678 12.195L4.34386 12.1979C4.34386 12.1979 3.92357 12.7949 3.89382 13.2103C3.86261 13.6238 3.97053 13.9943 3.95069 14.4075C3.93261 14.82 3.77365 15.209 3.77365 15.209C3.77365 15.209 4.15982 15.0483 4.5734 15.0387C4.9864 15.0279 5.29878 15.188 5.71236 15.1665C6.12653 15.1443 6.80057 14.6482 6.80057 14.6482L6.79969 14.6525C6.79969 14.6525 6.81048 15.3823 7.0304 15.7361C7.24798 16.0887 7.55336 16.3255 7.78028 16.6709C8.00778 17.0159 8.10811 17.424 8.10811 17.424C8.10811 17.424 8.32598 17.0658 8.65528 16.8155C8.98282 16.5647 9.32961 16.5096 9.65161 16.2497C9.97361 15.9884 10.2271 15.1904 10.2271 15.1904L10.2291 15.1942C10.2291 15.1942 10.6672 15.7787 11.0525 15.9359C11.4363 16.0931 11.8225 16.1045 12.2092 16.2509C12.5951 16.3961 12.9168 16.6674 12.9168 16.6674C12.9168 16.6674 12.8833 16.2497 13.0023 15.8539C13.1192 15.4581 13.368 15.2096 13.4751 14.8103C13.5818 14.4099 13.3184 13.6151 13.3184 13.6151L13.3222 13.6168C13.3222 13.6168 14.0202 13.8321 14.4242 13.7323C14.8269 13.6343 15.1463 13.4168 15.5456 13.3083C15.9423 13.198 16.3626 13.2286 16.3626 13.2286C16.3626 13.2286 16.0893 12.9113 15.9531 12.5205C15.8157 12.132 15.8711 11.7846 15.7224 11.3978C15.5736 11.0111 14.8934 10.5234 14.8934 10.5234L14.8964 10.522Z" fill="url(#paint0_radial_102_1210)" stroke="#212120" stroke-width="0.291667" stroke-miterlimit="10"/>
    <path d="M14.8953 8.76451C14.8953 8.76451 15.4801 8.32585 15.637 7.94085C15.7942 7.55701 15.8059 7.17114 15.952 6.78439C16.097 6.39822 16.3679 6.07622 16.3679 6.07622C16.3679 6.07622 15.9505 6.10976 15.5548 5.99135C15.1595 5.87468 14.911 5.62501 14.5115 5.51856C14.1113 5.41151 13.3165 5.6746 13.3165 5.6746L13.318 5.67168C13.318 5.67168 13.5332 4.97314 13.4338 4.56947C13.3352 4.16668 13.1176 3.8476 13.0088 3.44831C12.8988 3.05076 12.9292 2.63135 12.9292 2.63135C12.9292 2.63135 12.6115 2.90376 12.2213 3.04085C11.8328 3.17881 11.4851 3.12222 11.0993 3.27156C10.7119 3.42031 10.2243 4.10047 10.2243 4.10047V4.09697C10.2243 4.09697 9.98742 3.40543 9.66979 3.1371C9.35334 2.86876 8.99021 2.73839 8.66704 2.47968C8.34475 2.22214 8.1225 1.86572 8.1225 1.86572C8.1225 1.86572 8.02567 2.2726 7.79059 2.61297C7.55667 2.95306 7.24284 3.11143 7.01825 3.45881C6.79309 3.80676 6.79805 4.64356 6.79805 4.64356L6.79542 4.64064C6.79542 4.64064 6.19809 4.22035 5.78304 4.1906C5.36917 4.15997 4.99904 4.26701 4.58604 4.24747C4.17217 4.22939 3.78367 4.07043 3.78367 4.07043C3.78367 4.07043 3.94409 4.4566 3.95342 4.87018C3.96479 5.28318 3.80467 5.59585 3.82684 6.00885C3.84871 6.4236 4.34484 7.09647 4.34484 7.09647L4.34075 7.09589C4.34075 7.09589 3.61071 7.10668 3.25721 7.32718C2.90429 7.54476 2.66775 7.84956 2.32213 8.07676C1.97679 8.30514 1.56934 8.40489 1.56934 8.40489C1.56934 8.40489 1.92634 8.62247 2.17688 8.95176C2.42859 9.2793 2.48313 9.6261 2.74359 9.9481C3.00492 10.2701 3.80263 10.5236 3.80263 10.5236L3.79884 10.5256C3.79884 10.5256 3.21463 10.9637 3.058 11.349C2.90079 11.7319 2.88854 12.1184 2.74213 12.5051C2.59746 12.8922 2.32621 13.2133 2.32621 13.2133C2.32621 13.2133 2.743 13.1798 3.13938 13.2988C3.53517 13.4157 3.78338 13.6645 4.18325 13.7716C4.584 13.8786 5.37821 13.6149 5.37821 13.6149L5.37646 13.6184C5.37646 13.6184 5.16121 14.3164 5.26096 14.7201C5.35896 15.1228 5.57625 15.4425 5.68504 15.8412C5.79529 16.2393 5.76438 16.6588 5.76438 16.6588C5.76438 16.6588 6.082 16.3863 6.47225 16.2498C6.86192 16.1113 7.20813 16.1673 7.59517 16.0186C7.98221 15.8698 8.46988 15.1896 8.46988 15.1896L8.47046 15.1937C8.47046 15.1937 8.70642 15.8847 9.02463 16.153C9.3405 16.4213 9.70363 16.5517 10.0271 16.8104C10.3497 17.0683 10.5713 17.425 10.5713 17.425C10.5713 17.425 10.6679 17.0178 10.9041 16.6777C11.1378 16.3376 11.451 16.1781 11.6759 15.8316C11.9013 15.4839 11.8964 14.6468 11.8964 14.6468L11.8993 14.6498C11.8993 14.6498 12.4963 15.0701 12.9117 15.1004C13.3253 15.131 13.6957 15.0228 14.1087 15.0423C14.5208 15.061 14.9102 15.2194 14.9102 15.2194C14.9102 15.2194 14.7492 14.8332 14.7401 14.4196C14.729 14.0072 14.8889 13.694 14.8679 13.281C14.8457 12.8668 14.3493 12.1931 14.3493 12.1931L14.3534 12.1936C14.3534 12.1936 15.084 12.1831 15.4372 11.9635C15.7904 11.7456 16.0267 11.44 16.3726 11.2136C16.7168 10.9867 17.1245 10.8855 17.1245 10.8855C17.1245 10.8855 16.7678 10.6665 16.517 10.3378C16.2664 10.0102 16.2113 9.66285 15.9514 9.34143C15.6901 9.01943 14.8924 8.76597 14.8924 8.76597L14.8953 8.76451Z" fill="url(#paint1_radial_102_1210)" stroke="#212120" stroke-width="0.291667" stroke-miterlimit="10"/>
    <path d="M14.1053 6.18339C14.1053 6.18339 14.4419 5.49681 14.4043 5.06339C14.3684 4.62997 14.0802 4.24352 14.0324 3.8136C13.9834 3.38281 14.201 2.97622 14.201 2.97622C14.201 2.97622 13.8769 3.30377 13.4508 3.38077C13.0259 3.45981 12.6277 3.24864 12.2045 3.33847C11.7796 3.42918 11.1641 4.05218 11.1641 4.05218C11.1641 4.05218 11.0326 3.29968 10.7468 2.97039C10.463 2.64168 10.0027 2.49877 9.71107 2.17852C9.41794 1.85914 9.35611 1.4021 9.35611 1.4021C9.35611 1.4021 9.28552 1.85768 8.98686 2.17006C8.68819 2.48447 8.24282 2.54718 7.95232 2.8686C7.6624 3.19147 7.53144 4.0586 7.53144 4.0586C7.53144 4.0586 6.98223 3.52718 6.55815 3.42802C6.13494 3.32885 5.67819 3.48372 5.25382 3.39622C4.82944 3.3096 4.51007 2.97681 4.51007 2.97681C4.51007 2.97681 4.72152 3.38689 4.66319 3.81535C4.60632 4.24381 4.28286 4.55647 4.23707 4.98785C4.19127 5.41952 4.59552 6.19768 4.59552 6.19768C4.59552 6.19768 3.83777 6.09122 3.43761 6.26039C3.03627 6.42781 2.75832 6.82272 2.36369 7.00035C1.96877 7.18031 1.51465 7.09893 1.51465 7.09893C1.51465 7.09893 1.92707 7.30572 2.13182 7.68752C2.33832 8.06756 2.26073 8.5106 2.47715 8.88656C2.69357 9.26252 3.47757 9.65422 3.47757 9.65422C3.47757 9.65422 2.80236 10.013 2.57777 10.386C2.3529 10.757 2.35844 11.2388 2.14436 11.616C1.93115 11.9931 1.51552 12.1938 1.51552 12.1938C1.51552 12.1938 1.97082 12.1191 2.36019 12.3063C2.75044 12.4942 2.94877 12.8973 3.34427 13.0743C3.74065 13.2511 4.60515 13.1073 4.60515 13.1073C4.60515 13.1073 4.26973 13.7944 4.30707 14.2284C4.34323 14.661 4.6314 15.048 4.67952 15.4788C4.72882 15.9093 4.51007 16.3156 4.51007 16.3156C4.51007 16.3156 4.83527 15.9878 5.26111 15.9102C5.68636 15.8314 6.0839 16.0423 6.50857 15.9528C6.93207 15.8621 7.54748 15.2379 7.54748 15.2379C7.54748 15.2379 7.6799 15.991 7.96427 16.3197C8.24894 16.649 8.70861 16.7925 9.00086 17.1121C9.29369 17.4318 9.3564 17.8891 9.3564 17.8891C9.3564 17.8891 9.42669 17.4336 9.72536 17.1206C10.0234 16.8073 10.4694 16.7435 10.7599 16.4221C11.0498 16.0992 11.1799 15.2326 11.1799 15.2326C11.1799 15.2326 11.73 15.7641 12.1535 15.8632C12.5767 15.9618 13.0334 15.8075 13.4584 15.8941C13.8828 15.9805 14.2024 16.3138 14.2024 16.3138C14.2024 16.3138 13.9904 15.9043 14.0493 15.4744C14.1062 15.046 14.4288 14.7327 14.4749 14.3016C14.5198 13.8703 14.117 13.0924 14.117 13.0924C14.117 13.0924 14.873 13.1988 15.2746 13.0303C15.6751 12.8617 15.9536 12.4679 16.3485 12.2897C16.7431 12.1098 17.1973 12.1917 17.1973 12.1917C17.1973 12.1917 16.7849 11.9838 16.5798 11.6028C16.3736 11.2222 16.4515 10.7795 16.2351 10.4035C16.0181 10.0281 15.2341 9.63527 15.2341 9.63527C15.2341 9.63527 15.9087 9.27681 16.1341 8.90493C16.359 8.53247 16.3535 8.05093 16.5676 7.67439C16.7802 7.29727 17.1955 7.09631 17.1955 7.09631C17.1955 7.09631 16.7399 7.17039 16.3509 6.98285C15.9606 6.79647 15.7626 6.39281 15.3671 6.21489C14.9707 6.03989 14.1053 6.18339 14.1053 6.18339Z" fill="url(#paint2_radial_102_1210)" stroke="#212120" stroke-width="0.291667" stroke-miterlimit="10"/>
    <path d="M14.8675 7.84553C14.8675 7.84553 15.3922 7.30391 15.4896 6.88566C15.5876 6.46799 15.4348 6.01795 15.5208 5.59941C15.6063 5.17999 15.9344 4.86557 15.9344 4.86557C15.9344 4.86557 15.5302 5.07412 15.107 5.01666C14.684 4.96095 14.3755 4.64187 13.9505 4.59695C13.5244 4.55174 12.7567 4.94987 12.7567 4.94987C12.7567 4.94987 12.8626 4.20291 12.6955 3.8077C12.5295 3.41249 12.1413 3.13832 11.9648 2.74866C11.7878 2.35957 11.8686 1.91187 11.8686 1.91187C11.8686 1.91187 11.6638 2.31816 11.2882 2.52028C10.9128 2.72357 10.4759 2.64687 10.1049 2.86037C9.73417 3.07445 9.34742 3.84766 9.34742 3.84766C9.34742 3.84766 8.99392 3.18178 8.62613 2.95953C8.25951 2.73728 7.7838 2.74428 7.4128 2.53224C7.04063 2.32195 6.84259 1.91187 6.84259 1.91187C6.84259 1.91187 6.91609 2.36074 6.73059 2.74516C6.54684 3.13016 6.14842 3.32499 5.97372 3.71524C5.7993 4.10666 5.94105 4.96007 5.94105 4.96007C5.94105 4.96007 5.26351 4.62845 4.83592 4.66549C4.40863 4.70078 4.02742 4.98574 3.60276 5.03241C3.1778 5.08141 2.77647 4.86616 2.77647 4.86616C2.77647 4.86616 3.09992 5.18582 3.17605 5.60612C3.25422 6.02582 3.04626 6.41724 3.13405 6.83607C3.22272 7.25491 3.83901 7.86216 3.83901 7.86216C3.83901 7.86216 3.09584 7.99312 2.77151 8.27399C2.44747 8.5537 2.30572 9.00724 1.99013 9.29599C1.67513 9.58416 1.22363 9.64628 1.22363 9.64628C1.22363 9.64628 1.67338 9.71512 1.98226 10.0097C2.29142 10.3037 2.35384 10.7435 2.67117 11.0299C2.98938 11.3158 3.84397 11.4453 3.84397 11.4453C3.84397 11.4453 3.31984 11.9875 3.22242 12.4057C3.12442 12.8228 3.27667 13.2729 3.19092 13.692C3.10576 14.1108 2.77676 14.4258 2.77676 14.4258C2.77676 14.4258 3.18159 14.2173 3.60451 14.2742C4.02742 14.3304 4.3363 14.6489 4.76155 14.6944C5.1868 14.7385 5.95447 14.3407 5.95447 14.3407C5.95447 14.3407 5.84947 15.0876 6.01601 15.4828C6.18197 15.8777 6.56959 16.1528 6.74663 16.5424C6.92397 16.9309 6.84288 17.3792 6.84288 17.3792C6.84288 17.3792 7.04792 16.9727 7.4233 16.7699C7.79867 16.5675 8.23588 16.6434 8.60659 16.4299C8.9773 16.2161 9.36434 15.4426 9.36434 15.4426C9.36434 15.4426 9.71784 16.109 10.0853 16.3307C10.452 16.5532 10.9271 16.5471 11.299 16.758C11.6708 16.9686 11.8689 17.3792 11.8689 17.3792C11.8689 17.3792 11.7957 16.9298 11.9809 16.5448C12.1649 16.1604 12.5633 15.9649 12.738 15.5747C12.9125 15.1839 12.7707 14.331 12.7707 14.331C12.7707 14.331 13.4477 14.6615 13.8755 14.6256C14.3031 14.5897 14.6838 14.3054 15.109 14.2575C15.5334 14.2091 15.935 14.4247 15.935 14.4247C15.935 14.4247 15.6118 14.1038 15.5351 13.6844C15.4575 13.265 15.6655 12.8727 15.5777 12.4536C15.4885 12.0344 14.8728 11.4278 14.8728 11.4278C14.8728 11.4278 15.6159 11.2977 15.9403 11.0174C16.2643 10.7365 16.406 10.2827 16.7216 9.99541C17.0366 9.70607 17.4878 9.64453 17.4878 9.64453C17.4878 9.64453 17.0381 9.57512 16.7292 9.28053C16.4198 8.98712 16.3582 8.54728 16.0409 8.26028C15.7224 7.97445 14.8675 7.84553 14.8675 7.84553Z" fill="url(#paint3_radial_102_1210)" stroke="#212120" stroke-width="0.291667" stroke-miterlimit="10"/>
    <path d="M13.2836 6.78234C13.2836 6.78234 13.5621 6.21505 13.5315 5.85601C13.5012 5.49755 13.2632 5.17818 13.2232 4.82205C13.1827 4.46593 13.3629 4.12935 13.3629 4.12935C13.3629 4.12935 13.0946 4.40059 12.7426 4.46418C12.3905 4.5298 12.0618 4.3548 11.7115 4.42947C11.3601 4.50414 10.8511 5.01951 10.8511 5.01951C10.8511 5.01951 10.742 4.3968 10.5061 4.12526C10.2713 3.85285 9.89093 3.73501 9.64914 3.47018C9.40705 3.20593 9.35572 2.82764 9.35572 2.82764C9.35572 2.82764 9.29739 3.20476 9.05034 3.46289C8.8033 3.72334 8.43522 3.77497 8.19459 4.04039C7.95484 4.30755 7.84664 5.02476 7.84664 5.02476C7.84664 5.02476 7.39222 4.58493 7.04164 4.50355C6.69164 4.42101 6.31393 4.54964 5.96305 4.47672C5.61189 4.40555 5.34793 4.12993 5.34793 4.12993C5.34793 4.12993 5.52293 4.46943 5.4748 4.8238C5.42784 5.17818 5.16039 5.43689 5.12247 5.7933C5.08455 6.15059 5.41909 6.7943 5.41909 6.7943C5.41909 6.7943 4.79259 6.70593 4.46155 6.84622C4.12964 6.98476 3.89951 7.31114 3.57343 7.45814C3.24676 7.60747 2.87109 7.53951 2.87109 7.53951C2.87109 7.53951 3.21234 7.71101 3.3818 8.02601C3.55243 8.34043 3.48826 8.70676 3.66734 9.01768C3.84643 9.32859 4.4948 9.65264 4.4948 9.65264C4.4948 9.65264 3.93626 9.94984 3.75047 10.2576C3.56439 10.5653 3.56905 10.9634 3.39201 11.2749C3.21584 11.587 2.87197 11.7535 2.87197 11.7535C2.87197 11.7535 3.24851 11.6914 3.5708 11.8463C3.89339 12.0006 4.05759 12.3351 4.38484 12.4815C4.71268 12.6273 5.42755 12.5089 5.42755 12.5089C5.42755 12.5089 5.15018 13.0768 5.1808 13.4361C5.21084 13.7943 5.44914 14.1137 5.48909 14.4701C5.52993 14.8262 5.34909 15.1628 5.34909 15.1628C5.34909 15.1628 5.61772 14.8913 5.96976 14.8277C6.32151 14.7623 6.65051 14.9371 7.00168 14.8627C7.35197 14.788 7.86093 14.2723 7.86093 14.2723C7.86093 14.2723 7.97059 14.8951 8.20568 15.1663C8.44105 15.439 8.82109 15.5574 9.06289 15.822C9.30497 16.0856 9.35689 16.4645 9.35689 16.4645C9.35689 16.4645 9.41493 16.0874 9.66197 15.8287C9.90872 15.5691 10.2771 15.5166 10.5177 15.2512C10.7575 14.984 10.8654 14.2677 10.8654 14.2677C10.8654 14.2677 11.3204 14.7075 11.6707 14.7886C12.0204 14.8706 12.3981 14.7434 12.7493 14.8151C13.1001 14.886 13.3644 15.1622 13.3644 15.1622C13.3644 15.1622 13.1891 14.8233 13.2375 14.4678C13.2848 14.1131 13.5513 13.8544 13.5896 13.4977C13.6266 13.1407 13.2932 12.4976 13.2932 12.4976C13.2932 12.4976 13.9188 12.5856 14.2508 12.4456C14.5821 12.3059 14.8125 11.9807 15.1386 11.8331C15.4647 11.6844 15.8406 11.7523 15.8406 11.7523C15.8406 11.7523 15.4994 11.5803 15.3296 11.2658C15.1593 10.9508 15.2235 10.5845 15.0444 10.2736C14.8653 9.96297 14.2166 9.63864 14.2166 9.63864C14.2166 9.63864 14.7752 9.3423 14.9616 9.0343C15.1479 8.72659 15.1427 8.32847 15.32 8.01697C15.4962 7.70547 15.8395 7.53893 15.8395 7.53893C15.8395 7.53893 15.4629 7.59989 15.1406 7.44501C14.8181 7.2913 14.6544 6.95676 14.3272 6.80976C13.9993 6.66364 13.2836 6.78234 13.2836 6.78234Z" fill="url(#paint4_radial_102_1210)" stroke="#212120" stroke-width="0.291667" stroke-miterlimit="10"/>
    <path d="M13.2703 8.36732C13.2703 8.36732 13.6428 7.9829 13.7119 7.6854C13.7816 7.38907 13.6731 7.0697 13.7347 6.7722C13.795 6.4744 14.0287 6.25099 14.0287 6.25099C14.0287 6.25099 13.7417 6.39915 13.4407 6.35803C13.1405 6.31865 12.9212 6.09203 12.6193 6.06024C12.3169 6.02845 11.772 6.31078 11.772 6.31078C11.772 6.31078 11.8473 5.78053 11.7286 5.49965C11.6113 5.21878 11.3351 5.02395 11.2103 4.74774C11.084 4.47153 11.142 4.15361 11.142 4.15361C11.142 4.15361 10.9965 4.44178 10.7296 4.58528C10.463 4.72995 10.1524 4.6754 9.88932 4.82678C9.62624 4.97874 9.35149 5.52795 9.35149 5.52795C9.35149 5.52795 9.10037 5.05515 8.83932 4.89736C8.57887 4.73957 8.24112 4.74424 7.97745 4.59374C7.71291 4.4444 7.57232 4.15332 7.57232 4.15332C7.57232 4.15332 7.62453 4.47182 7.49299 4.74511C7.36232 5.0187 7.07941 5.15695 6.95545 5.43374C6.83178 5.7117 6.93211 6.31778 6.93211 6.31778C6.93211 6.31778 6.45086 6.0824 6.14724 6.10865C5.84391 6.13374 5.57295 6.33586 5.27166 6.36911C4.96978 6.40382 4.68482 6.25128 4.68482 6.25128C4.68482 6.25128 4.91466 6.4779 4.96861 6.77657C5.02403 7.07494 4.87645 7.3532 4.93886 7.6504C5.00186 7.9479 5.43936 8.3784 5.43936 8.3784C5.43936 8.3784 4.91174 8.47174 4.68132 8.67124C4.45091 8.87015 4.35057 9.19186 4.12628 9.3969C3.90257 9.60194 3.58203 9.64599 3.58203 9.64599C3.58203 9.64599 3.90141 9.69499 4.12074 9.90411C4.34036 10.1135 4.3847 10.4253 4.61016 10.6286C4.83591 10.8316 5.44316 10.9238 5.44316 10.9238C5.44316 10.9238 5.07099 11.3088 5.00157 11.606C4.93216 11.9023 5.04007 12.2214 4.97911 12.5198C4.91845 12.8173 4.68511 13.041 4.68511 13.041C4.68511 13.041 4.97241 12.8925 5.27282 12.9334C5.57324 12.9733 5.79257 13.1994 6.09445 13.2314C6.39661 13.2624 6.94174 12.9806 6.94174 12.9806C6.94174 12.9806 6.86707 13.5106 6.9852 13.7914C7.10332 14.0723 7.37866 14.2674 7.50407 14.5434C7.63007 14.8193 7.57232 15.1381 7.57232 15.1381C7.57232 15.1381 7.71786 14.8493 7.98474 14.7061C8.25132 14.562 8.56195 14.6157 8.82503 14.4646C9.08812 14.3127 9.36316 13.7634 9.36316 13.7634C9.36316 13.7634 9.61428 14.2368 9.87503 14.394C10.1358 14.5518 10.4729 14.5477 10.7369 14.6977C11.0012 14.847 11.142 15.1387 11.142 15.1387C11.142 15.1387 11.0895 14.8196 11.2211 14.5463C11.3517 14.2727 11.6347 14.1344 11.7589 13.8571C11.8829 13.5797 11.7822 12.9739 11.7822 12.9739C11.7822 12.9739 12.2629 13.2093 12.5665 13.1836C12.8702 13.1579 13.1408 12.9567 13.4424 12.9223C13.744 12.8879 14.0289 13.0413 14.0289 13.0413C14.0289 13.0413 13.7994 12.8135 13.7452 12.5151C13.6903 12.2173 13.8373 11.9382 13.7755 11.6413C13.7122 11.3435 13.2747 10.9127 13.2747 10.9127C13.2747 10.9127 13.8026 10.8208 14.033 10.621C14.2634 10.4215 14.3638 10.1001 14.5878 9.89565C14.8118 9.69003 15.1317 9.64657 15.1317 9.64657C15.1317 9.64657 14.8121 9.59699 14.593 9.38786C14.3734 9.17932 14.3294 8.86724 14.1039 8.66336C13.8776 8.4592 13.2703 8.36732 13.2703 8.36732Z" fill="url(#paint5_radial_102_1210)" stroke="#212120" stroke-width="0.291667" stroke-miterlimit="10"/>
    <path d="M9.34443 6.76502C9.34443 6.76502 9.66206 5.96235 10.1316 5.85239C10.6015 5.74418 11.0352 5.97081 11.5057 5.87456C11.9761 5.77948 12.3401 5.40789 12.3401 5.40789C12.3401 5.40789 12.0919 5.86523 12.1374 6.34443C12.1812 6.82423 12.4912 7.24918 12.5218 7.73102C12.5545 8.21402 11.9671 8.66464 11.9671 8.66464V8.66406C11.9671 8.66406 12.829 8.71831 13.0781 9.13131C13.3266 9.54489 13.2449 10.0276 13.482 10.4444C13.7188 10.8638 14.1838 11.0945 14.1838 11.0945C14.1838 11.0945 13.6722 11 13.23 11.1914C12.7873 11.3809 12.4793 11.8071 12.0298 11.9856C11.5809 12.1661 10.9708 11.7467 10.9708 11.7467C10.9708 11.7467 11.1854 12.5826 10.8698 12.9472C10.5531 13.3118 10.0695 13.3829 9.74577 13.7367C9.42114 14.0914 9.34472 14.6056 9.34472 14.6056C9.34472 14.6056 9.27647 14.0891 8.95768 13.7277C8.64035 13.3654 8.13956 13.2041 7.83214 12.8329C7.52181 12.4613 7.7321 11.7511 7.7321 11.7511C7.7321 11.7511 7.00322 12.2145 6.55872 12.0267C6.1151 11.8383 5.89722 11.3999 5.46089 11.2013C5.02339 11.0009 4.50977 11.0881 4.50977 11.0881C4.50977 11.0881 4.97964 10.8635 5.22493 10.4488C5.47197 10.0352 5.47081 9.50873 5.72952 9.10214C5.98618 8.69148 6.72702 8.67252 6.72702 8.67252C6.72702 8.67252 6.06085 8.12214 6.10227 7.64148C6.14397 7.16168 6.49368 6.81956 6.54735 6.34268C6.60218 5.86464 6.36127 5.40381 6.36127 5.40381C6.36127 5.40381 6.71972 5.78093 7.18989 5.88623C7.65977 5.99268 8.15968 5.82877 8.62781 5.94952C9.09797 6.06706 9.34443 6.76502 9.34443 6.76502Z" fill="url(#paint6_radial_102_1210)" stroke="#212120" stroke-width="0.291667" stroke-miterlimit="10"/>
    <path d="M10.5457 7.99266C10.5457 7.99266 11.0858 7.65025 11.4148 7.78937C11.7435 7.9285 11.9048 8.25312 12.2283 8.40012C12.5517 8.54829 12.9315 8.48441 12.9315 8.48441C12.9315 8.48441 12.5838 8.65008 12.4027 8.95779C12.2198 9.26433 12.2204 9.65312 12.0294 9.95558C11.8389 10.2592 11.2903 10.2735 11.2903 10.2735L11.2906 10.2729C11.2906 10.2729 11.7829 10.6807 11.7529 11.0368C11.7222 11.3932 11.4635 11.6464 11.4233 11.9996C11.3825 12.3537 11.561 12.6949 11.561 12.6949C11.561 12.6949 11.2955 12.4152 10.9473 12.3373C10.5999 12.2583 10.2292 12.3799 9.8827 12.2907C9.53504 12.2035 9.35216 11.686 9.35245 11.6866C9.35245 11.6866 9.11679 12.2813 8.76883 12.3618C8.42087 12.442 8.09974 12.2746 7.75179 12.3458C7.40295 12.4164 7.13316 12.6917 7.13316 12.6917C7.13316 12.6917 7.31691 12.3531 7.28337 11.9972C7.25099 11.6417 7.02145 11.3273 6.9987 10.9703C6.9742 10.6121 7.40966 10.2787 7.40966 10.2787V10.2793C7.40966 10.2793 6.7712 10.2388 6.58658 9.93283C6.40254 9.62716 6.46291 9.27016 6.28791 8.9607C6.11262 8.65095 5.76758 8.47945 5.76758 8.47945C5.76758 8.47945 6.14674 8.54945 6.47458 8.4077C6.80241 8.26712 7.03079 7.95154 7.36329 7.8197C7.69608 7.68583 8.14787 7.99675 8.14787 7.99675C8.14787 7.99675 7.98833 7.37695 8.22254 7.10687C8.45674 6.83737 8.81491 6.78458 9.05495 6.52237C9.29558 6.25987 9.35216 5.87866 9.35216 5.87866C9.35216 5.87866 9.40262 6.26104 9.63858 6.52879C9.87424 6.79712 10.2447 6.9167 10.4725 7.19233C10.7023 7.46737 10.5465 7.99325 10.5465 7.99325L10.5457 7.99266Z" fill="url(#paint7_radial_102_1210)" stroke="#212120" stroke-width="0.291667" stroke-miterlimit="10"/>
    <path d="M9.34798 11.651C10.4554 11.651 11.3532 10.7533 11.3532 9.64583C11.3532 8.53839 10.4554 7.64062 9.34798 7.64062C8.24054 7.64062 7.34277 8.53839 7.34277 9.64583C7.34277 10.7533 8.24054 11.651 9.34798 11.651Z" fill="url(#paint8_radial_102_1210)" stroke="#212120" stroke-width="0.291667" stroke-miterlimit="10"/>
    <defs>
        <radialGradient id="paint0_radial_102_1210" cx="0" cy="0" r="1" gradientUnits="userSpaceOnUse" gradientTransform="translate(9.34741 9.64538) rotate(32.988) scale(7.74081 7.65684)">
            <stop stop-color="white"/>
            <stop offset="0.1286" stop-color="#FBF4F7"/>
            <stop offset="0.3568" stop-color="#EFD6E3"/>
            <stop offset="0.6578" stop-color="#DCA5C2"/>
            <stop offset="1" stop-color="#C46597"/>
        </radialGradient>
        <radialGradient id="paint1_radial_102_1210" cx="0" cy="0" r="1" gradientUnits="userSpaceOnUse" gradientTransform="translate(9.34653 9.64497) rotate(14.9873) scale(7.74101 7.65687)">
            <stop stop-color="white"/>
            <stop offset="0.1609" stop-color="#F8ECF2"/>
            <stop offset="0.4856" stop-color="#E5BCD2"/>
            <stop offset="0.9411" stop-color="#C86F9E"/>
            <stop offset="1" stop-color="#C46597"/>
        </radialGradient>
        <radialGradient id="paint2_radial_102_1210" cx="0" cy="0" r="1" gradientUnits="userSpaceOnUse" gradientTransform="translate(9.35531 9.64604) rotate(59.9859) scale(8.10233 8.05779)">
            <stop stop-color="white"/>
            <stop offset="0.1245" stop-color="#FBF5F8"/>
            <stop offset="0.3349" stop-color="#F1DBE6"/>
            <stop offset="0.6053" stop-color="#E1B0C9"/>
            <stop offset="0.9224" stop-color="#CA75A2"/>
            <stop offset="1" stop-color="#C46597"/>
        </radialGradient>
        <radialGradient id="paint3_radial_102_1210" cx="0" cy="0" r="1" gradientUnits="userSpaceOnUse" gradientTransform="translate(9.35564 9.64562) rotate(77.9865) scale(7.99212 7.94932)">
            <stop stop-color="white"/>
            <stop offset="0.1331" stop-color="#FAF2F7"/>
            <stop offset="0.3774" stop-color="#EDD1E0"/>
            <stop offset="0.7026" stop-color="#D99CBC"/>
            <stop offset="1" stop-color="#C46597"/>
        </radialGradient>
        <radialGradient id="paint4_radial_102_1210" cx="0" cy="0" r="1" gradientUnits="userSpaceOnUse" gradientTransform="translate(9.35562 9.64624) rotate(59.9859) scale(6.70132 6.66448)">
            <stop stop-color="white"/>
            <stop offset="0.1907" stop-color="#F6E7EF"/>
            <stop offset="0.5942" stop-color="#DEA9C5"/>
            <stop offset="1" stop-color="#C46597"/>
        </radialGradient>
        <radialGradient id="paint5_radial_102_1210" cx="0" cy="0" r="1" gradientUnits="userSpaceOnUse" gradientTransform="translate(9.35636 9.64614) rotate(77.9865) scale(5.67559 5.64519)">
            <stop stop-color="white"/>
            <stop offset="0.1694" stop-color="#F7EBF1"/>
            <stop offset="0.5172" stop-color="#E3B7CE"/>
            <stop offset="1" stop-color="#C46597"/>
        </radialGradient>
        <radialGradient id="paint6_radial_102_1210" cx="0" cy="0" r="1" gradientUnits="userSpaceOnUse" gradientTransform="translate(9.35444 9.6343) rotate(1.67682) scale(5.4981 3.86226)">
            <stop stop-color="white"/>
            <stop offset="0.5448" stop-color="#DEA9C5"/>
            <stop offset="1" stop-color="#C46597"/>
        </radialGradient>
        <radialGradient id="paint7_radial_102_1210" cx="0" cy="0" r="1" gradientUnits="userSpaceOnUse" gradientTransform="translate(9.33356 9.65188) rotate(3.86898) scale(6.4766 2.30376)">
            <stop stop-color="white"/>
            <stop offset="0.348" stop-color="#E9C5D8"/>
            <stop offset="0.7921" stop-color="#CE80A9"/>
            <stop offset="1" stop-color="#C46597"/>
        </radialGradient>
        <radialGradient id="paint8_radial_102_1210" cx="0" cy="0" r="1" gradientUnits="userSpaceOnUse" gradientTransform="translate(9.34789 9.64583) scale(2.00521)">
            <stop stop-color="white"/>
            <stop offset="0.137" stop-color="#FAF1F6"/>
            <stop offset="0.3936" stop-color="#ECCEDE"/>
            <stop offset="0.7393" stop-color="#D695B7"/>
            <stop offset="1" stop-color="#C46597"/>
        </radialGradient>
    </defs>
</svg>
