<svg width="17" height="17" viewBox="0 0 17 17" fill="none" xmlns="http://www.w3.org/2000/svg">
    <path d="M11.4472 3.38039C11.4472 3.38039 11.6767 2.8443 11.4842 2.50714C11.2941 2.16997 10.8997 1.93984 10.7 1.60793C10.4984 1.27601 10.5398 0.890137 10.5398 0.890137C10.5398 0.890137 10.3762 1.24218 10.0317 1.42243C9.68816 1.60297 9.2632 1.54376 8.92487 1.73276C8.58624 1.92235 8.49291 2.59318 8.49291 2.59318C8.49291 2.59318 8.42349 2.01422 8.08837 1.81822C7.7547 1.62134 7.29854 1.6193 6.95933 1.43176C6.61866 1.24509 6.46204 0.890137 6.46204 0.890137C6.46204 0.890137 6.49616 1.27689 6.28762 1.6053C6.08054 1.93314 5.683 2.09443 5.48408 2.42751C5.28604 2.76089 5.54037 3.38855 5.54037 3.38855C5.54037 3.38855 5.19095 2.92189 4.80245 2.91984C4.41541 2.91634 4.01875 3.14268 3.63141 3.14968C3.24321 3.15843 2.92996 2.92947 2.92996 2.92947C2.92996 2.92947 3.15308 3.24709 3.13646 3.63589C3.121 4.02322 2.85733 4.36185 2.8515 4.74947C2.84683 5.13739 3.38087 5.55389 3.38087 5.55389C3.38087 5.55389 2.84508 5.32434 2.50733 5.51684C2.17075 5.7073 1.94033 6.10164 1.60842 6.30143C1.2765 6.50326 0.890625 6.46126 0.890625 6.46126C0.890625 6.46126 1.24267 6.62489 1.42262 6.96993C1.60287 7.31293 1.54396 7.73818 1.73267 8.0768C1.92254 8.41484 2.59337 8.50847 2.59337 8.50847C2.59337 8.50847 2.01471 8.57759 1.81812 8.91301C1.62183 9.24668 1.6195 9.70314 1.43225 10.0421C1.24558 10.3827 0.890625 10.5396 0.890625 10.5396C0.890625 10.5396 1.27737 10.5052 1.6055 10.7141C1.93333 10.9208 2.09492 11.3187 2.42742 11.5173C2.76137 11.7153 3.38875 11.461 3.38875 11.461C3.38875 11.461 2.92208 11.8101 2.91946 12.1992C2.91625 12.586 3.14287 12.9826 3.14987 13.37C3.15862 13.7582 2.92937 14.0717 2.92937 14.0717C2.92937 14.0717 3.247 13.8483 3.63579 13.8649C4.02283 13.8804 4.36175 14.1441 4.74908 14.1499C5.137 14.1546 5.5535 13.6205 5.5535 13.6205C5.5535 13.6205 5.32366 14.1563 5.51645 14.4943C5.70691 14.8306 6.10154 15.0608 6.30133 15.393C6.50287 15.7249 6.46116 16.1111 6.46116 16.1111C6.46116 16.1111 6.6245 15.7587 6.96954 15.5788C7.31254 15.3988 7.73779 15.4574 8.07612 15.269C8.41416 15.0788 8.50808 14.408 8.50808 14.408C8.50808 14.408 8.57691 14.987 8.91262 15.1836C9.24599 15.3796 9.70274 15.3816 10.0417 15.5691C10.3823 15.7558 10.5389 16.1108 10.5389 16.1108C10.5389 16.1108 10.5042 15.7243 10.7134 15.3959C10.9202 15.0683 11.3177 14.9065 11.5166 14.5743C11.7144 14.2403 11.4606 13.6123 11.4606 13.6123C11.4606 13.6123 11.81 14.0796 12.1985 14.0816C12.5853 14.0851 12.9819 13.8582 13.3699 13.8509C13.7581 13.8413 14.0716 14.0708 14.0716 14.0708C14.0716 14.0708 13.8482 13.7532 13.8648 13.3647C13.8803 12.9774 14.1439 12.6385 14.1498 12.2511C14.1544 11.8632 13.6204 11.4467 13.6204 11.4467C13.6204 11.4467 14.1568 11.6763 14.4939 11.4841C14.8305 11.2936 15.0607 10.899 15.3929 10.6989C15.7251 10.4973 16.1107 10.5393 16.1107 10.5393C16.1107 10.5393 15.7586 10.3757 15.5787 10.031C15.3987 9.68797 15.4573 9.26243 15.2689 8.92409C15.0787 8.58605 14.4082 8.49214 14.4082 8.49214C14.4082 8.49214 14.9869 8.42301 15.1829 8.08818C15.3794 7.75422 15.3818 7.29805 15.569 6.95855C15.756 6.61818 16.1112 6.46155 16.1112 6.46155C16.1112 6.46155 15.7239 6.49539 15.3958 6.28714C15.0677 6.08005 14.9064 5.68222 14.5739 5.48359C14.2399 5.28555 13.6125 5.53989 13.6125 5.53989C13.6125 5.53989 14.0795 5.19047 14.0815 4.80226C14.085 4.41464 13.8587 4.01855 13.8514 3.63093C13.8424 3.24243 14.0716 2.92918 14.0716 2.92918C14.0716 2.92918 13.7537 3.15201 13.3652 3.13568C12.9779 3.12022 12.6389 2.85626 12.2516 2.85072C11.8634 2.84605 11.4472 3.38039 11.4472 3.38039Z" fill="url(#paint0_radial_102_1256)" stroke="#212120" stroke-width="0.291667" stroke-miterlimit="10"/>
    <path d="M8.50054 14.3934C11.7552 14.3934 14.3937 11.755 14.3937 8.5003C14.3937 5.24562 11.7552 2.60718 8.50054 2.60718C5.24586 2.60718 2.60742 5.24562 2.60742 8.5003C2.60742 11.755 5.24586 14.3934 8.50054 14.3934Z" fill="white" stroke="#212120" stroke-width="0.291667" stroke-miterlimit="10"/>
    <path d="M8.50054 14.3934C11.7552 14.3934 14.3937 11.755 14.3937 8.5003C14.3937 5.24562 11.7552 2.60718 8.50054 2.60718C5.24586 2.60718 2.60742 5.24562 2.60742 8.5003C2.60742 11.755 5.24586 14.3934 8.50054 14.3934Z" fill="url(#paint1_radial_102_1256)" stroke="#212120" stroke-width="0.291667" stroke-miterlimit="10"/>
    <path d="M13.5945 5.56035L10.2637 5.56006L11.9288 8.44464L13.5945 5.56035Z" fill="url(#paint2_radial_102_1256)" stroke="#212120" stroke-width="0.291667" stroke-miterlimit="10" stroke-linejoin="bevel"/>
    <path d="M3.3418 5.55981L5.07167 8.55581L6.80154 5.56011L3.3418 5.55981Z" fill="url(#paint3_radial_102_1256)" stroke="#212120" stroke-width="0.291667" stroke-miterlimit="10" stroke-linejoin="bevel"/>
    <path d="M10.1994 11.4407L6.7373 11.4404L8.46835 14.4388L10.1994 11.4407Z" fill="url(#paint4_radial_102_1256)" stroke="#212120" stroke-width="0.291667" stroke-miterlimit="10" stroke-linejoin="bevel"/>
    <path d="M13.659 11.4406L11.9291 8.44458L10.1992 11.4406H13.659Z" fill="url(#paint5_radial_102_1256)" stroke="#212120" stroke-width="0.291667" stroke-miterlimit="10" stroke-linejoin="bevel"/>
    <path d="M3.40625 11.4405H6.73679L5.07166 8.55591L3.40625 11.4405Z" fill="url(#paint6_radial_102_1256)" stroke="#212120" stroke-width="0.291667" stroke-miterlimit="10" stroke-linejoin="bevel"/>
    <path d="M8.5328 2.56201L6.80176 5.56005H10.2638L8.5328 2.56201Z" fill="url(#paint7_radial_102_1256)" stroke="#212120" stroke-width="0.291667" stroke-miterlimit="10" stroke-linejoin="bevel"/>
    <path d="M11.9284 8.44464L10.2632 5.56006H6.80116L5.07129 8.55577L6.73641 11.4404L10.1985 11.4406L11.9284 8.44464Z" fill="url(#paint8_radial_102_1256)" stroke="#212120" stroke-width="0.291667" stroke-miterlimit="10" stroke-linejoin="bevel"/>
    <path d="M11.9284 8.44464L10.2632 5.56006H6.80116L5.07129 8.55577L6.73641 11.4404L10.1985 11.4406L11.9284 8.44464Z" fill="url(#paint9_radial_102_1256)" stroke="#212120" stroke-width="0.291667" stroke-miterlimit="10"/>
    <defs>
        <radialGradient id="paint0_radial_102_1256" cx="0" cy="0" r="1" gradientUnits="userSpaceOnUse" gradientTransform="translate(8.50091 8.50006) rotate(94.4215) scale(8.3344 7.34939)">
            <stop stop-color="white" stop-opacity="0"/>
            <stop offset="0.0853" stop-color="#F5F9F2" stop-opacity="0.0853"/>
            <stop offset="0.2313" stop-color="#DFEBD4" stop-opacity="0.2313"/>
            <stop offset="0.4204" stop-color="#BED7AD" stop-opacity="0.4204"/>
            <stop offset="0.6452" stop-color="#9AC184" stop-opacity="0.6452"/>
            <stop offset="0.8974" stop-color="#72AB58" stop-opacity="0.8974"/>
            <stop offset="1" stop-color="#61A346"/>
        </radialGradient>
        <radialGradient id="paint1_radial_102_1256" cx="0" cy="0" r="1" gradientUnits="userSpaceOnUse" gradientTransform="translate(8.5004 8.50016) scale(5.893 5.89301)">
            <stop stop-color="white" stop-opacity="0"/>
            <stop offset="1" stop-color="#61A346"/>
        </radialGradient>
        <radialGradient id="paint2_radial_102_1256" cx="0" cy="0" r="1" gradientUnits="userSpaceOnUse" gradientTransform="translate(8.52692 8.50633) scale(4.7954 4.79541)">
            <stop stop-color="white" stop-opacity="0"/>
            <stop offset="0.0852" stop-color="#F7FAF5" stop-opacity="0.0852"/>
            <stop offset="0.22" stop-color="#E4EEDB" stop-opacity="0.22"/>
            <stop offset="0.3875" stop-color="#C7DDB7" stop-opacity="0.3875"/>
            <stop offset="0.5812" stop-color="#A7C993" stop-opacity="0.5812"/>
            <stop offset="0.7939" stop-color="#84B56C" stop-opacity="0.7939"/>
            <stop offset="1" stop-color="#61A346"/>
        </radialGradient>
        <radialGradient id="paint3_radial_102_1256" cx="0" cy="0" r="1" gradientUnits="userSpaceOnUse" gradientTransform="translate(8.52713 8.50638) scale(4.79535 4.79535)">
            <stop stop-color="white" stop-opacity="0"/>
            <stop offset="0.0852" stop-color="#F7FAF5" stop-opacity="0.0852"/>
            <stop offset="0.22" stop-color="#E4EEDB" stop-opacity="0.22"/>
            <stop offset="0.3875" stop-color="#C7DDB7" stop-opacity="0.3875"/>
            <stop offset="0.5812" stop-color="#A7C993" stop-opacity="0.5812"/>
            <stop offset="0.7939" stop-color="#84B56C" stop-opacity="0.7939"/>
            <stop offset="1" stop-color="#61A346"/>
        </radialGradient>
        <radialGradient id="paint4_radial_102_1256" cx="0" cy="0" r="1" gradientUnits="userSpaceOnUse" gradientTransform="translate(8.52764 8.50626) scale(4.79529 4.79529)">
            <stop stop-color="white" stop-opacity="0"/>
            <stop offset="0.0852" stop-color="#F7FAF5" stop-opacity="0.0852"/>
            <stop offset="0.22" stop-color="#E4EEDB" stop-opacity="0.22"/>
            <stop offset="0.3875" stop-color="#C7DDB7" stop-opacity="0.3875"/>
            <stop offset="0.5812" stop-color="#A7C993" stop-opacity="0.5812"/>
            <stop offset="0.7939" stop-color="#84B56C" stop-opacity="0.7939"/>
            <stop offset="1" stop-color="#61A346"/>
        </radialGradient>
        <radialGradient id="paint5_radial_102_1256" cx="0" cy="0" r="1" gradientUnits="userSpaceOnUse" gradientTransform="translate(8.47363 8.49416) rotate(180) scale(4.79535 4.79535)">
            <stop stop-color="white" stop-opacity="0"/>
            <stop offset="0.0852" stop-color="#F7FAF5" stop-opacity="0.0852"/>
            <stop offset="0.22" stop-color="#E4EEDB" stop-opacity="0.22"/>
            <stop offset="0.3875" stop-color="#C7DDB7" stop-opacity="0.3875"/>
            <stop offset="0.5812" stop-color="#A7C993" stop-opacity="0.5812"/>
            <stop offset="0.7939" stop-color="#84B56C" stop-opacity="0.7939"/>
            <stop offset="1" stop-color="#61A346"/>
        </radialGradient>
        <radialGradient id="paint6_radial_102_1256" cx="0" cy="0" r="1" gradientUnits="userSpaceOnUse" gradientTransform="translate(8.47343 8.49422) rotate(180) scale(4.79499 4.795)">
            <stop stop-color="white" stop-opacity="0"/>
            <stop offset="0.0852" stop-color="#F7FAF5" stop-opacity="0.0852"/>
            <stop offset="0.22" stop-color="#E4EEDB" stop-opacity="0.22"/>
            <stop offset="0.3875" stop-color="#C7DDB7" stop-opacity="0.3875"/>
            <stop offset="0.5812" stop-color="#A7C993" stop-opacity="0.5812"/>
            <stop offset="0.7939" stop-color="#84B56C" stop-opacity="0.7939"/>
            <stop offset="1" stop-color="#61A346"/>
        </radialGradient>
        <radialGradient id="paint7_radial_102_1256" cx="0" cy="0" r="1" gradientUnits="userSpaceOnUse" gradientTransform="translate(8.4735 8.49437) rotate(180) scale(4.79517 4.79518)">
            <stop stop-color="white" stop-opacity="0"/>
            <stop offset="0.0852" stop-color="#F7FAF5" stop-opacity="0.0852"/>
            <stop offset="0.22" stop-color="#E4EEDB" stop-opacity="0.22"/>
            <stop offset="0.3875" stop-color="#C7DDB7" stop-opacity="0.3875"/>
            <stop offset="0.5812" stop-color="#A7C993" stop-opacity="0.5812"/>
            <stop offset="0.7939" stop-color="#84B56C" stop-opacity="0.7939"/>
            <stop offset="1" stop-color="#61A346"/>
        </radialGradient>
        <radialGradient id="paint8_radial_102_1256" cx="0" cy="0" r="1" gradientUnits="userSpaceOnUse" gradientTransform="translate(8.52675 8.50648) scale(4.79494 4.79494)">
            <stop stop-color="white" stop-opacity="0"/>
            <stop offset="0.0852" stop-color="#F7FAF5" stop-opacity="0.0852"/>
            <stop offset="0.22" stop-color="#E4EEDB" stop-opacity="0.22"/>
            <stop offset="0.3875" stop-color="#C7DDB7" stop-opacity="0.3875"/>
            <stop offset="0.5812" stop-color="#A7C993" stop-opacity="0.5812"/>
            <stop offset="0.7939" stop-color="#84B56C" stop-opacity="0.7939"/>
            <stop offset="1" stop-color="#61A346"/>
        </radialGradient>
        <radialGradient id="paint9_radial_102_1256" cx="0" cy="0" r="1" gradientUnits="userSpaceOnUse" gradientTransform="translate(8.47291 8.49422) rotate(180) scale(4.79494 4.79494)">
            <stop stop-color="white" stop-opacity="0"/>
            <stop offset="0.0418" stop-color="#F1F6ED" stop-opacity="0.0418"/>
            <stop offset="0.2503" stop-color="#BBD5A9" stop-opacity="0.2503"/>
            <stop offset="0.4469" stop-color="#98C082" stop-opacity="0.4469"/>
            <stop offset="0.6256" stop-color="#80B267" stop-opacity="0.6256"/>
            <stop offset="0.783" stop-color="#6FAA55" stop-opacity="0.783"/>
            <stop offset="0.9132" stop-color="#65A54A" stop-opacity="0.9132"/>
            <stop offset="1" stop-color="#61A346"/>
        </radialGradient>
    </defs>
</svg>
