<svg width="19" height="17" viewBox="0 0 19 17" fill="none" xmlns="http://www.w3.org/2000/svg">
    <path d="M14.8464 6.75414C14.8464 6.75414 15.3553 6.22856 15.4495 5.82314C15.5446 5.41802 15.3965 4.98168 15.4802 4.57568C15.5627 4.1691 15.8815 3.86402 15.8815 3.86402C15.8815 3.86402 15.4892 4.06585 15.0788 4.01043C14.6685 3.95618 14.3692 3.64702 13.9568 3.60327C13.5438 3.55981 12.7992 3.94598 12.7992 3.94598C12.7992 3.94598 12.9018 3.22177 12.7397 2.83793C12.5787 2.45468 12.2021 2.18839 12.0312 1.81098C11.8591 1.43356 11.9376 0.999268 11.9376 0.999268C11.9376 0.999268 11.739 1.39331 11.3744 1.58931C11.0104 1.78706 10.5866 1.71239 10.227 1.91918C9.86734 2.12685 9.49196 2.87673 9.49196 2.87673C9.49196 2.87673 9.14896 2.23068 8.79255 2.01573C8.43701 1.80018 7.97559 1.80602 7.61567 1.60098C7.25459 1.39681 7.06267 0.999268 7.06267 0.999268C7.06267 0.999268 7.13384 1.43473 6.95417 1.80777C6.77597 2.18139 6.38922 2.37039 6.22005 2.74898C6.05088 3.12843 6.18826 3.95589 6.18826 3.95589C6.18826 3.95589 5.53084 3.63448 5.11609 3.67035C4.70193 3.70477 4.33209 3.98068 3.92026 4.02648C3.50784 4.07373 3.11876 3.86489 3.11876 3.86489C3.11876 3.86489 3.43259 4.17493 3.50639 4.58268C3.58193 4.98985 3.38009 5.36989 3.46555 5.7756C3.55159 6.18218 4.14922 6.77048 4.14922 6.77048C4.14922 6.77048 3.42851 6.89764 3.1138 7.16977C2.79939 7.4416 2.66201 7.88143 2.35576 8.16114C2.0501 8.44143 1.6123 8.50093 1.6123 8.50093C1.6123 8.50093 2.04864 8.56802 2.34789 8.85385C2.64772 9.13939 2.70839 9.56522 3.01639 9.84348C3.32497 10.1208 4.15389 10.2463 4.15389 10.2463C4.15389 10.2463 3.64551 10.7727 3.55101 11.1778C3.45622 11.5824 3.6038 12.019 3.52068 12.4253C3.43814 12.8316 3.11905 13.137 3.11905 13.137C3.11905 13.137 3.51164 12.9349 3.92172 12.99C4.3318 13.0448 4.63163 13.3537 5.04405 13.3974C5.45676 13.4403 6.20138 13.0544 6.20138 13.0544C6.20138 13.0544 6.09901 13.7789 6.26088 14.1628C6.42217 14.5457 6.79813 14.8126 6.96963 15.1897C7.14172 15.5669 7.06297 16.0017 7.06297 16.0017C7.06297 16.0017 7.26188 15.6074 7.62617 15.4111C7.99017 15.2142 8.41426 15.2883 8.77388 15.0812C9.13321 14.8736 9.50888 14.1237 9.50888 14.1237C9.50888 14.1237 9.85188 14.77 10.208 14.9853C10.5638 15.2002 11.0247 15.195 11.3852 15.3997C11.746 15.6036 11.9382 16.0014 11.9382 16.0014C11.9382 16.0014 11.8673 15.5657 12.0467 15.1926C12.2252 14.8196 12.6119 14.63 12.7811 14.2511C12.95 13.872 12.8129 13.0445 12.8129 13.0445C12.8129 13.0445 13.47 13.3659 13.8848 13.3304C14.2992 13.2954 14.6688 13.0203 15.0809 12.9736C15.4927 12.9264 15.8818 13.1358 15.8818 13.1358C15.8818 13.1358 15.5685 12.8249 15.4945 12.4174C15.4192 12.0106 15.621 11.6305 15.5353 11.2242C15.449 10.8179 14.8516 10.2294 14.8516 10.2294C14.8516 10.2294 15.5723 10.1031 15.887 9.83064C16.2017 9.55881 16.3388 9.11898 16.6451 8.83956C16.9507 8.55927 17.3882 8.49977 17.3882 8.49977C17.3882 8.49977 16.9522 8.43239 16.653 8.14627C16.3528 7.86131 16.2927 7.43518 15.9847 7.15693C15.6759 6.87927 14.8464 6.75414 14.8464 6.75414Z" fill="url(#paint0_radial_102_1270)" stroke="#212120" stroke-width="0.291667" stroke-miterlimit="10"/>
    <path d="M9.50097 13.9685C12.5213 13.9685 14.9697 11.5201 14.9697 8.49976C14.9697 5.47945 12.5213 3.03101 9.50097 3.03101C6.48067 3.03101 4.03223 5.47945 4.03223 8.49976C4.03223 11.5201 6.48067 13.9685 9.50097 13.9685Z" fill="url(#paint1_radial_102_1270)" stroke="#212120" stroke-width="0.291667" stroke-miterlimit="10"/>
    <path d="M9.47036 14.0111L4.71387 5.77124L14.228 5.77153L9.47036 14.0111Z" fill="url(#paint2_radial_102_1270)" stroke="#212120" stroke-width="0.291667" stroke-miterlimit="10" stroke-linejoin="bevel"/>
    <defs>
        <radialGradient id="paint0_radial_102_1270" cx="0" cy="0" r="1" gradientUnits="userSpaceOnUse" gradientTransform="translate(9.50063 8.49956) rotate(77.9865) scale(7.75171 7.7102)">
            <stop stop-color="white" stop-opacity="0"/>
            <stop offset="0.0852" stop-color="#FFFEF5" stop-opacity="0.0852"/>
            <stop offset="0.22" stop-color="#FFFCDD" stop-opacity="0.22"/>
            <stop offset="0.3875" stop-color="#FFF9B9" stop-opacity="0.3875"/>
            <stop offset="0.5812" stop-color="#FFF592" stop-opacity="0.5812"/>
            <stop offset="0.7939" stop-color="#FFF064" stop-opacity="0.7939"/>
            <stop offset="1" stop-color="#FEED27"/>
        </radialGradient>
        <radialGradient id="paint1_radial_102_1270" cx="0" cy="0" r="1" gradientUnits="userSpaceOnUse" gradientTransform="translate(9.50097 8.49976) scale(5.46875 5.46875)">
            <stop stop-color="white" stop-opacity="0"/>
            <stop offset="0.0852" stop-color="#FFFEF5" stop-opacity="0.0852"/>
            <stop offset="0.22" stop-color="#FFFCDD" stop-opacity="0.22"/>
            <stop offset="0.3875" stop-color="#FFF9B9" stop-opacity="0.3875"/>
            <stop offset="0.5812" stop-color="#FFF592" stop-opacity="0.5812"/>
            <stop offset="0.7939" stop-color="#FFF064" stop-opacity="0.7939"/>
            <stop offset="1" stop-color="#FEED27"/>
        </radialGradient>
        <radialGradient id="paint2_radial_102_1270" cx="0" cy="0" r="1" gradientUnits="userSpaceOnUse" gradientTransform="translate(9.52561 8.50576) scale(4.44984 4.44984)">
            <stop stop-color="white" stop-opacity="0"/>
            <stop offset="1" stop-color="#FEED27"/>
        </radialGradient>
    </defs>
</svg>
